<svg xmlns="http://www.w3.org/2000/svg" xmlns:xlink="http://www.w3.org/1999/xlink" version="1.1" id="Layer_1" x="0px" y="0px" viewBox="5.0 -10.0 100.0 135.0" enable-background="new 0 0 100 100" xml:space="preserve" height="100px" width="100px">
<path id="cut2" d="M37.2,45h-8.6c-1.7-3-5-5-8.7-5c-5.5,0-10,4.5-10,10c0,5.5,4.5,10,10,10c3.7,0,6.9-2,8.7-5h8.6l5-5L37.2,45z   M20,56c-3.3,0-6-2.7-6-6s2.7-6,6-6s6,2.7,6,6S23.3,56,20,56z M80,40c-3.7,0-6.9,2-8.7,5h-8.6l-5,5l5,5h8.6c1.7,3,5,5,8.7,5  c5.5,0,10-4.5,10-10C90,44.5,85.5,40,80,40z M80,56c-3.3,0-6-2.7-6-6s2.7-6,6-6s6,2.7,6,6S83.3,56,80,56z M62.5,42.5l-4.9-5L50,45.1  l-7.5-7.5l-5,5l7.5,7.5l-7.5,7.5l5,4.9l7.5-7.5l7.5,7.5l4.9-4.9L54.9,50L62.5,42.5z"/>
<text x="0.0" y="117.5" font-size="5.0" font-weight="bold" font-family="Helvetica Neue, Helvetica, Arial-Unicode, Arial, Sans-serif" fill="#000000">Created by Dmitry Baranovskiy</text><text x="0.0" y="122.5" font-size="5.0" font-weight="bold" font-family="Helvetica Neue, Helvetica, Arial-Unicode, Arial, Sans-serif" fill="#000000">from the Noun Project</text></svg>